<?xml version="1.0" encoding="UTF-8" standalone="no"?>
<!-- Created with Inkscape (http://www.inkscape.org/) -->

<svg
   width="48"
   height="48"
   viewBox="0 0 12.7 12.7"
   version="1.1"
   id="svg1"
   inkscape:export-filename="logo_V4.svg"
   inkscape:export-xdpi="240"
   inkscape:export-ydpi="240"
   xmlns:inkscape="http://www.inkscape.org/namespaces/inkscape"
   xmlns:sodipodi="http://sodipodi.sourceforge.net/DTD/sodipodi-0.dtd"
   xmlns:xlink="http://www.w3.org/1999/xlink"
   xmlns="http://www.w3.org/2000/svg"
   xmlns:svg="http://www.w3.org/2000/svg">
  <sodipodi:namedview
     id="namedview1"
     pagecolor="#ffffff"
     bordercolor="#000000"
     borderopacity="0.25"
     inkscape:showpageshadow="2"
     inkscape:pageopacity="0.0"
     inkscape:pagecheckerboard="0"
     inkscape:deskcolor="#d1d1d1"
     inkscape:document-units="mm"
     inkscape:export-bgcolor="#ffffff00"
     showguides="true">
    <sodipodi:guide
       position="6.6597552,8.409561"
       orientation="0,-1"
       id="guide195"
       inkscape:locked="false" />
    <sodipodi:guide
       position="4.9814208,9.749101"
       orientation="0,-1"
       id="guide196"
       inkscape:locked="false" />
    <sodipodi:guide
       position="8.3200186,9.0448857"
       orientation="1,0"
       id="guide197"
       inkscape:locked="false" />
    <sodipodi:guide
       position="11.0171,4.3297049"
       orientation="0,-1"
       id="guide198"
       inkscape:locked="false" />
    <sodipodi:guide
       position="4.2179255,1.4554348"
       orientation="0,-1"
       id="guide199"
       inkscape:locked="false" />
    <sodipodi:guide
       position="7.1634813,2.5691667"
       orientation="0,-1"
       id="guide200"
       inkscape:locked="false" />
    <sodipodi:guide
       position="4.2201844,5.0798473"
       orientation="1,0"
       id="guide201"
       inkscape:locked="false" />
    <sodipodi:guide
       position="11.001209,3.5323261"
       orientation="1,0"
       id="guide202"
       inkscape:locked="false" />
    <sodipodi:guide
       position="0.14519771,5.5314637"
       orientation="1,0"
       id="guide203"
       inkscape:locked="false" />
    <sodipodi:guide
       position="12.54409,6.2012337"
       orientation="1,0"
       id="guide204"
       inkscape:locked="false" />
    <sodipodi:guide
       position="5.0528808,11.356829"
       orientation="0,-1"
       id="guide205"
       inkscape:locked="false" />
    <sodipodi:guide
       position="4.2066312,0.61726553"
       orientation="0,-1"
       id="guide206"
       inkscape:locked="false" />
    <inkscape:page
       x="0"
       y="0"
       width="12.7"
       height="12.7"
       id="page2"
       margin="0"
       bleed="0" />
  </sodipodi:namedview>
  <defs
     id="defs1">
    <inkscape:path-effect
       effect="bspline"
       id="path-effect27"
       is_visible="true"
       lpeversion="1.3"
       weight="33.333333"
       steps="2"
       helper_size="0"
       apply_no_weight="true"
       apply_with_weight="true"
       only_selected="false"
       uniform="false" />
    <linearGradient
       id="linearGradient18"
       inkscape:collect="always">
      <stop
         style="stop-color:#271717;stop-opacity:1;"
         offset="0.32100874"
         id="stop18" />
      <stop
         style="stop-color:#3f2922;stop-opacity:0.9615069;"
         offset="0.67164826"
         id="stop195" />
    </linearGradient>
    <linearGradient
       inkscape:collect="always"
       xlink:href="#linearGradient18"
       id="linearGradient19"
       x1="5.0051103"
       y1="2.2814128"
       x2="6.8182225"
       y2="10.134864"
       gradientUnits="userSpaceOnUse"
       gradientTransform="matrix(1.3907518,0,0,1.2741308,-1.2236749,-1.4447039)" />
    <inkscape:path-effect
       effect="bspline"
       id="path-effect27-7"
       is_visible="true"
       lpeversion="1.3"
       weight="33.333333"
       steps="2"
       helper_size="0"
       apply_no_weight="true"
       apply_with_weight="true"
       only_selected="false"
       uniform="false" />
    <inkscape:path-effect
       effect="bspline"
       id="path-effect27-7-7"
       is_visible="true"
       lpeversion="1.3"
       weight="33.333333"
       steps="2"
       helper_size="0"
       apply_no_weight="true"
       apply_with_weight="true"
       only_selected="false"
       uniform="false" />
  </defs>
  <g
     inkscape:label="Camada 1"
     inkscape:groupmode="layer"
     id="layer1">
    <path
       id="path5"
       style="fill:url(#linearGradient19);fill-opacity:1;stroke-width:0.032432;stroke-linecap:round;stroke-linejoin:round"
       d="m 4.536633,2.9193389 c -1.6076399,0.00319 -3.143554,1.091011 -3.143554,1.091011 0,0 -0.025104,0.046114 1.2002137,3.5054564 1.2253164,3.4593427 6.0269423,2.3137085 6.0269423,2.3137085 0.6501673,-3.0698823 2.375274,-1.3514974 2.375274,-1.4202254 0,-0.068101 1.557663,-1.8964013 1.586151,-1.9298447 -4.3e-5,-6.026e-4 -6.32e-4,-0.00134 -7.18e-4,-0.00197 -0.0011,-0.00382 -7.81e-4,-0.00707 0,-0.00988 C 11.074732,4.739197 8.6903929,3.8212563 8.3406643,3.6929888 5.8937194,5.4274507 5.0188746,2.9792558 5.0188746,2.9792558 c 0,0 0.00127,-2.45e-5 0.00143,0 -0.00442,-0.00901 -0.00958,-0.017839 -0.013657,-0.026995 C 4.8501481,2.9299784 4.6931322,2.9190265 4.5366368,2.9193379 Z m 3.8040313,0.7736499 c 0.00104,-7.38e-4 0.0012,-0.00194 0.00216,-0.00265 -0.00282,-9.036e-4 -0.00545,-0.00167 -0.0072,-0.00265 -0.00152,6.628e-4 -0.0028,0.00167 -0.00431,0.00197 0.00369,0.00138 0.00568,0.00196 0.00934,0.00329 z M 12.599628,6.465618 c -5.14e-4,0.00229 -10e-4,0.00482 -0.0014,0.00724 0.0014,0.00344 0.0031,0.00748 0.0043,0.010536 2.9e-5,-7.835e-4 -8.6e-5,-0.00134 0,-0.00197 -9.87e-4,-0.0042 -0.0017,-0.00911 -0.0021,-0.014486 -4.1e-5,-4.97e-5 -7.17e-4,-0.00127 -7.17e-4,-0.00131 z" />
    <path
       style="fill:#326e42;fill-opacity:1;stroke-width:0.0529167;stroke-linecap:round;stroke-linejoin:round"
       d="m 3.0220886,8.6069039 c 0.064497,0.011311 0.131271,0.00207 0.198015,-0.00717 -6.5e-4,0.1650744 -0.0013,0.329137 0.2056343,0.5416872 0.2069304,0.2125501 0.6163951,0.4684087 0.984215,0.6375619 0.3678199,0.1691531 0.6914507,0.2500182 1.0633953,0.3123092 0.3719446,0.06229 0.7921579,0.105999 1.1797532,0.114738 0.3875953,0.0087 0.7425264,-0.01749 1.0981919,-0.0732 0.3556655,-0.05571 0.712029,-0.1408907 0.9935467,-0.1920655 0.2815176,-0.051175 0.4881538,-0.068337 0.4562301,6.229e-4 -0.031924,0.06896 -0.3024014,0.2240296 -0.6818781,0.3450356 -0.3794766,0.121006 -0.8679001,0.207932 -1.3008449,0.237833 -0.4329448,0.0299 -0.8103619,0.0028 -1.2517157,-0.05053 C 5.5252776,10.420429 5.0200334,10.340969 4.6089512,10.205234 4.1978689,10.069499 3.880996,9.8775058 3.6177662,9.6805544 3.3545365,9.483603 3.1449807,9.2817166 2.9922619,9.1008475 2.839543,8.9199784 2.7436784,8.7601468 2.6925732,8.6576749 2.641468,8.555203 2.6351269,8.5101003 2.6659838,8.4986878 c 0.030857,-0.011413 0.098907,0.010866 0.1640892,0.037942 0.065182,0.027076 0.1275181,0.058963 0.1920156,0.070274 z"
       id="path27-1-1"
       inkscape:path-effect="#path-effect27-7-7"
       inkscape:original-d="m 3.0198715,8.6274507 c 0.066714,-0.00924 0.2002321,-0.027719 0.2002321,-0.027719 0,0 -0.0013,0.329137 -0.00195,0.4952231 0.4145147,0.2590142 0.8239794,0.5148728 1.235969,0.7723092 0.3236502,0.08087 0.647281,0.161735 0.9709315,0.242605 0.4202389,0.04371 0.840452,0.08742 1.2606911,0.131132 0.3549518,-0.02623 0.7098831,-0.05246 1.0648334,-0.0787 C 8.1069591,10.077117 8.4633225,9.991935 8.819706,9.9067482 9.0263576,9.8895847 9.2329938,9.8724226 9.4396483,9.8552589 9.1691462,10.010342 8.8986689,10.165412 8.6281701,10.320493 8.1397155,10.407425 7.6512919,10.49435 7.1628394,10.581281 6.7854023,10.554152 6.4079852,10.527024 6.0305487,10.499894 5.5252777,10.420429 5.0200334,10.340969 4.5147608,10.261504 4.197869,10.069499 3.880996,9.8775058 3.5641045,9.6855012 3.3545365,9.483603 3.1449807,9.2817166 2.9354127,9.0798184 2.839543,8.9199784 2.7436784,8.7601468 2.6478093,8.6003077 2.641468,8.555203 2.6351269,8.5101003 2.6287856,8.4649954 c 0.068055,0.02228 0.1361053,0.044558 0.2041596,0.066838 0.06231,0.031873 0.1246461,0.063759 0.1869263,0.095617 z"
       transform="matrix(0.56906502,0.77704994,-0.7554557,0.80014046,6.5121044,-3.823988)"
       sodipodi:nodetypes="ccccccccccccccccccc" />
    <path
       style="fill:#562e7c;fill-opacity:1;stroke-width:0.0924055;stroke-linecap:round;stroke-linejoin:round"
       d="m 0.68219088,3.0294825 c -0.0189224,0.017292 -0.0467116,0.00106 -0.0678494,0.01 -0.0594956,0.025072 -0.23989868,0.190643 -0.27213699,0.2449854 -0.0368455,0.062109 -0.0724159,0.2580019 -0.062692,0.3268841 0.004045,0.028663 0.0833295,0.1485938 0.0808304,0.1520571 -0.027426,0.037998 -0.0893676,0.069986 -0.11183672,0.1189269 -0.060518,0.1318271 -0.11667867,0.2915769 -0.12606437,0.4386801 -0.003213,0.050342 0.010223,0.1446282 0.0366234,0.1893045 0.0207047,0.035038 0.1369104,0.106568 0.12101823,0.1563897 -0.00655,0.020525 -0.0303047,0.029986 -0.0427955,0.047286 -0.0601665,0.083353 -0.0719597,0.3313286 -0.0582145,0.4286957 0.0117404,0.08317 0.0219002,0.1585513 0.0810567,0.2237534 0.001241,0.00138 0.13171267,0.093569 0.11535052,0.1162361 -0.17939472,0.2485257 -0.21287228,0.638484 -0.0677379,0.9219548 0.0236477,0.046182 0.0748893,0.1078225 0.11818556,0.1363131 0.0158229,0.010401 0.11464012,0.041111 0.11795808,0.064617 7.32e-4,0.00517 -0.0329024,0.045507 -0.0331012,0.045859 -0.0166343,0.029346 -0.021404,0.051059 -0.0274356,0.086012 -0.0244035,0.1414494 0.0505334,0.3118339 0.14675192,0.4087792 0.0992812,0.1000453 0.40049479,0.2612839 0.51014929,0.1093748 0.00277,-0.0038 -0.00896,0.00672 -0.00828,0.011476 0.00254,0.018019 0.014185,0.034274 0.02647,0.047339 0.024261,0.025793 0.049842,0.051012 0.079187,0.070324 0.059405,0.039093 0.1572591,0.070751 0.2274135,0.069005 0.1213833,-0.00301 0.2493832,-0.033841 0.3515497,-0.1029703 0.037898,-0.025642 0.079297,-0.049845 0.1063931,-0.087386 0.01308,-0.018119 -0.0011,-0.061321 0.020577,-0.064509 0.00722,-0.00107 0.00734,0.013302 0.012534,0.01865 0.016377,0.016912 0.033958,0.03451 0.05555,0.043063 0.029888,0.011826 0.1005314,0.015947 0.1302583,0.011574 0.148254,-0.021817 0.3253395,-0.1353858 0.4078369,-0.2649573 0.016043,-0.025197 0.028044,-0.055789 0.027435,-0.086012 -1.562e-4,-0.00826 -0.037225,-0.068449 -0.03072,-0.077453 0.00516,-0.00714 0.036387,0.014061 0.041604,0.014371 0.018287,0.00105 0.053163,-0.010469 0.066432,-0.020035 C 2.7477305,6.7711513 2.7977571,6.6323652 2.8072435,6.5184054 2.8230722,6.3282463 2.6811422,6.2375899 2.607776,6.0866418 2.6038983,6.0787254 2.6776777,5.970873 2.6834475,5.9218009 2.7002417,5.7790215 2.6556725,5.6346571 2.5768804,5.5173587 2.5441268,5.4685965 2.4799041,5.3939899 2.4350594,5.3537826 2.3943486,5.3172801 2.2040768,5.1787911 2.1863901,5.1342009 2.1754361,5.10657 2.2163338,5.0642306 2.2220996,5.0367215 2.243476,4.9348194 2.2153011,4.8191216 2.1781709,4.7255281 2.1112152,4.5567155 2.0173711,4.4114179 1.8886338,4.2865256 c -0.035486,-0.03443 -0.073587,-0.065983 -0.1125154,-0.096161 -0.0168,-0.013017 -0.049348,-0.023302 -0.065242,-0.041634 -0.00379,-0.00437 0.043547,-0.042593 0.048237,-0.078827 0.00544,-0.04188 -0.00288,-0.1110883 -0.01155,-0.152005 C 1.6887817,3.6410428 1.5962319,3.5145163 1.3800227,3.3469159 1.3110347,3.2934384 1.2397707,3.2602742 1.1663271,3.2349051 c -1.357e-4,-4.7e-5 0.00782,-0.023246 0.00545,-0.031544 -0.015421,-0.054134 -0.00939,-0.040247 -0.040412,-0.076026 C 1.0410473,3.0231758 0.9296017,2.9418388 0.79142584,2.9621728 c -0.00977,0.00143 -0.0408273,4.663e-4 -0.0484644,0.00714 -0.021416,0.01872 -0.0405093,0.040118 -0.060763,0.060179 z"
       id="path26-5" />
    <path
       style="fill:#438450;fill-opacity:1;stroke-width:0.0529167;stroke-linecap:round;stroke-linejoin:round"
       d="m 2.6832963,8.1733632 c 0.019348,-0.010285 0.05808,-0.030875 0.096793,-0.051456 0.1460207,0.3243491 0.2911465,0.6467102 0.5718616,0.9393858 0.2807152,0.2926756 0.6901799,0.5485342 1.0595668,0.7216524 0.3693869,0.1731183 0.696158,0.2619151 1.0922031,0.3222971 0.396045,0.06038 0.8613382,0.09235 1.2893501,0.09412 0.4280119,0.0018 0.8187159,-0.02664 1.1401679,-0.07954 0.321452,-0.0529 0.5736294,-0.130265 0.8670315,-0.2255623 C 9.0936727,9.7989714 9.4282732,9.6857546 9.7653816,9.5666233 10.10249,9.4474919 10.442104,9.3224468 10.478181,9.3380407 c 0.03608,0.015594 -0.231383,0.1718235 -0.5755989,0.336644 -0.344216,0.1648204 -0.76517,0.3382233 -1.1887779,0.4676553 -0.4236078,0.129432 -0.8498298,0.21488 -1.279618,0.259381 -0.4297882,0.0445 -0.8631147,0.04805 -1.323094,0.0072 C 5.6511128,10.368076 5.1645075,10.282835 4.7355649,10.154863 4.3066223,10.026892 3.9353742,9.8562014 3.6449553,9.6699022 3.3545365,9.483603 3.1449807,9.2817166 2.9922619,9.1008475 2.839543,8.9199784 2.7436784,8.7601468 2.6823297,8.6118911 2.6209811,8.4636354 2.5941541,8.3269694 2.596844,8.2575246 c 0.00269,-0.069445 0.034896,-0.071661 0.051001,-0.07277 0.016104,-0.00111 0.016104,-0.00111 0.035452,-0.011392 z"
       id="path27"
       inkscape:path-effect="#path-effect27"
       inkscape:original-d="m 2.6639483,8.1836487 c 0.038696,-0.020571 0.1161413,-0.061741 0.1161413,-0.061741 0,0 0.2911465,0.6467102 0.4380621,0.9730472 0.4145147,0.2590142 0.8239794,0.5148728 1.235969,0.7723092 0.3267842,0.0888 0.6535555,0.1775959 0.9803331,0.2663949 0.4653121,0.03197 0.9306057,0.06393 1.3959088,0.0959 0.3907203,-0.02842 0.7814247,-0.05683 1.1721373,-0.08525 C 8.254691,10.066935 8.5068685,9.989566 8.7590611,9.9121919 9.0936727,9.7989714 9.4282732,9.6857546 9.7628739,9.5725378 10.10249,9.4474919 10.442104,9.3224469 10.781734,9.1973958 10.514258,9.3536347 10.246798,9.5098641 9.9793303,9.6660982 9.5583661,9.8395051 9.1374121,10.012908 8.7164378,10.186319 c -0.4262419,0.08545 -0.8524635,0.170901 -1.278695,0.256352 -0.4333444,0.0036 -0.8666713,0.0071 -1.3000067,0.01065 C 5.6511115,10.368084 5.1645068,10.282839 4.6778923,10.197592 4.3066221,10.026892 3.9353742,9.8562014 3.5641045,9.6855012 3.3545365,9.483603 3.1449807,9.2817166 2.9354127,9.0798184 2.839543,8.9199784 2.7436784,8.7601468 2.6478093,8.6003077 2.6209811,8.4636354 2.5941541,8.3269694 2.5673257,8.1902964 c 0.032208,-0.00222 0.064415,-0.00443 0.096623,-0.00665 z"
       transform="matrix(1.1395815,0,0,0.97349903,-0.4027725,-0.03085369)"
       sodipodi:nodetypes="ccccccccccccccccccccc" />
    <path
       style="fill:#6c4590;fill-opacity:1;stroke-width:0.0964302;stroke-linecap:round;stroke-linejoin:round"
       d="m 1.8821659,1.3661912 c -0.021675,0.015249 -0.047524,-0.00614 -0.070241,-4.01e-5 C 1.7479849,1.3832791 1.5412322,1.529397 1.5007255,1.581547 1.4544295,1.641148 1.3901896,1.8416689 1.3901454,1.915633 1.3901341,1.94641 1.4532824,2.0848798 1.4502484,2.0881342 1.4169724,2.1238392 1.3495565,2.1478592 1.319735,2.1958467 1.239408,2.3251029 1.1594852,2.4844054 1.1288145,2.6376757 c -0.010497,0.052453 -0.010434,0.1537137 0.00991,0.2048097 0.015967,0.040068 0.123516,0.1333689 0.1002349,0.183304 -0.00959,0.020573 -0.035043,0.02683 -0.050197,0.043086 -0.073001,0.078324 -0.1206167,0.3373208 -0.1206793,0.4418712 -4.86e-5,0.089306 -5.911e-4,0.1701737 0.050024,0.2479494 0.00106,0.00165 0.1201151,0.1188891 0.1002605,0.1401887 -0.2176591,0.2335292 -0.30768246,0.6384995 -0.2012655,0.9592202 0.017337,0.052248 0.060439,0.1250503 0.1002497,0.1617461 0.014551,0.013397 0.1103432,0.061059 0.1103275,0.086299 -6.9e-6,0.00558 -0.039911,0.042751 -0.040163,0.043091 -0.021087,0.028283 -0.029048,0.05038 -0.040191,0.086207 -0.045086,0.1449896 0.00641,0.3358523 0.090036,0.452777 0.086293,0.1206583 0.3685662,0.3370686 0.5016091,0.1943251 0.00335,-0.00358 -0.010048,0.00569 -0.010046,0.010798 -1.53e-5,0.01935 0.00945,0.038252 0.020038,0.053906 0.020895,0.030899 0.04321,0.061401 0.070188,0.086275 0.054622,0.050353 0.1493013,0.098858 0.2206951,0.1079243 0.1235257,0.015694 0.2577632,0.00316 0.3713087,-0.053675 0.042121,-0.021082 0.087581,-0.040104 0.1204596,-0.075383 0.01587,-0.017027 0.00771,-0.06467 0.030142,-0.064656 0.00747,1.67e-5 0.00553,0.015131 0.010026,0.021563 0.014176,0.020332 0.029472,0.041575 0.050141,0.053927 0.028609,0.017091 0.099655,0.032397 0.1304294,0.032414 0.1534799,9.24e-5 0.3493907,-0.091845 0.4516823,-0.2153109 0.019893,-0.024008 0.036461,-0.054322 0.040189,-0.086209 0.00104,-0.00871 -0.027907,-0.077778 -0.02002,-0.086245 0.00625,-0.00671 0.034877,0.020449 0.040125,0.021582 0.018391,0.00395 0.055417,-0.00276 0.070246,-0.010756 C 3.4387718,5.6228224 3.5094597,5.4846176 3.5354666,5.3662247 3.5788624,5.168668 3.4479688,5.0512549 3.3952752,4.8810802 3.3924852,4.8721491 3.4828092,4.770174 3.4957164,4.7194541 3.5332726,4.5718822 3.5088415,4.4131093 3.4458057,4.2774852 3.419601,4.2211052 3.3652016,4.1326503 3.3255067,4.0833893 3.2894712,4.038668 3.1164327,3.8634301 3.1049087,3.8137797 c -0.00714,-0.030767 0.040426,-0.068944 0.05023,-0.096982 0.036329,-0.1038621 0.024389,-0.229937 1.999e-4,-0.3341521 -0.043622,-0.18797 -0.1178997,-0.3553826 -0.23049,-0.5067564 -0.031035,-0.04173 -0.065138,-0.080839 -0.1002724,-0.1186313 -0.015165,-0.01631 -0.046693,-0.032181 -0.060176,-0.05393 -0.00321,-0.00518 0.050284,-0.038031 0.060253,-0.075419 0.011529,-0.04321 0.013064,-0.1172941 0.010139,-0.1616805 C 2.8150005,2.1658865 2.7393389,2.0184185 2.5441842,1.8085289 2.4819137,1.741558 2.4144149,1.6955993 2.3435846,1.6575012 c -1.313e-4,-7.04e-5 0.011272,-0.023237 0.01006,-0.03233 -0.00786,-0.059339 -0.00374,-0.043792 -0.030051,-0.086251 -0.076611,-0.1235945 -0.177931,-0.2264685 -0.3209775,-0.2265545 -0.010118,-2.2e-6 -0.04147,-0.00587 -0.050172,-2.3e-5 -0.024409,0.016363 -0.046849,0.0359 -0.070274,0.053855 z"
       id="path26-8"
       sodipodi:nodetypes="ccsscsscscsccccsccccscccsssccsscsccscssscccccsccssccsccc"
       inkscape:transform-center-x="-0.08611709"
       inkscape:transform-center-y="0.30320245" />
    <path
       style="fill:#65a867;fill-opacity:1;stroke-width:0.0529167;stroke-linecap:round;stroke-linejoin:round"
       d="m 3.0220886,8.6069039 c 0.064497,0.011311 0.131271,0.00207 0.198015,-0.00717 -6.5e-4,0.1650744 -0.0013,0.329137 0.2056343,0.5416872 0.2069304,0.2125501 0.6163951,0.4684087 0.984215,0.6375619 0.3678199,0.1691531 0.6914507,0.2500182 1.0633953,0.3123092 0.3719446,0.06229 0.7921579,0.105999 1.1797532,0.114738 0.3875953,0.0087 0.7425264,-0.01749 1.0981919,-0.0732 0.3556655,-0.05571 0.712029,-0.1408907 0.9935467,-0.1920655 0.2815176,-0.051175 0.4881538,-0.068337 0.4562301,6.229e-4 -0.031924,0.06896 -0.3024014,0.2240296 -0.6818781,0.3450356 -0.3794766,0.121006 -0.8679001,0.207932 -1.3008449,0.237833 -0.4329448,0.0299 -0.8103619,0.0028 -1.2517157,-0.05053 C 5.5252776,10.420429 5.0200334,10.340969 4.6089512,10.205234 4.1978689,10.069499 3.880996,9.8775058 3.6177662,9.6805544 3.3545365,9.483603 3.1449807,9.2817166 2.9922619,9.1008475 2.839543,8.9199784 2.7436784,8.7601468 2.6925732,8.6576749 2.641468,8.555203 2.6351269,8.5101003 2.6659838,8.4986878 c 0.030857,-0.011413 0.098907,0.010866 0.1640892,0.037942 0.065182,0.027076 0.1275181,0.058963 0.1920156,0.070274 z"
       id="path27-1"
       inkscape:path-effect="#path-effect27-7"
       inkscape:original-d="m 3.0198715,8.6274507 c 0.066714,-0.00924 0.2002321,-0.027719 0.2002321,-0.027719 0,0 -0.0013,0.329137 -0.00195,0.4952231 0.4145147,0.2590142 0.8239794,0.5148728 1.235969,0.7723092 0.3236502,0.08087 0.647281,0.161735 0.9709315,0.242605 0.4202389,0.04371 0.840452,0.08742 1.2606911,0.131132 0.3549518,-0.02623 0.7098831,-0.05246 1.0648334,-0.0787 C 8.1069591,10.077117 8.4633225,9.991935 8.819706,9.9067482 9.0263576,9.8895847 9.2329938,9.8724226 9.4396483,9.8552589 9.1691462,10.010342 8.8986689,10.165412 8.6281701,10.320493 8.1397155,10.407425 7.6512919,10.49435 7.1628394,10.581281 6.7854023,10.554152 6.4079852,10.527024 6.0305487,10.499894 5.5252777,10.420429 5.0200334,10.340969 4.5147608,10.261504 4.197869,10.069499 3.880996,9.8775058 3.5641045,9.6855012 3.3545365,9.483603 3.1449807,9.2817166 2.9354127,9.0798184 2.839543,8.9199784 2.7436784,8.7601468 2.6478093,8.6003077 2.641468,8.555203 2.6351269,8.5101003 2.6287856,8.4649954 c 0.068055,0.02228 0.1361053,0.044558 0.2041596,0.066838 0.06231,0.031873 0.1246461,0.063759 0.1869263,0.095617 z"
       transform="matrix(0.3688737,0.79185498,-0.91172615,0.4530231,9.8872145,0.29088233)"
       sodipodi:nodetypes="ccccccccccccccccccc" />
    <path
       style="fill:#78519f;fill-opacity:1;stroke-width:0.0855214;stroke-linecap:round;stroke-linejoin:round"
       d="M 3.0883179,4.252708 C 3.0660829,4.260778 3.0480069,4.237015 3.0268109,4.237121 2.9671599,4.2374296 2.754919,4.315007 2.7083184,4.3500635 c -0.05326,0.040066 -0.1523028,0.1951229 -0.1681226,0.257553 -0.00658,0.025979 0.019182,0.1568541 0.015832,0.15893 -0.036759,0.022774 -0.1009235,0.028129 -0.1372796,0.062036 -0.097925,0.091334 -0.2019073,0.2081232 -0.2614694,0.330723 -0.02038,0.041957 -0.041932,0.1274545 -0.035013,0.175094 0.00543,0.037362 0.079714,0.1399332 0.048671,0.176934 -0.012796,0.015243 -0.036414,0.014891 -0.053156,0.02526 -0.080642,0.049959 -0.1776022,0.2580616 -0.1999641,0.3463085 -0.019101,0.075379 -0.036826,0.1435287 -0.00909,0.2203914 5.776e-4,0.00162 0.079824,0.1269564 0.057894,0.1405419 -0.2404428,0.1489586 -0.4056864,0.4709023 -0.3809201,0.765211 0.00404,0.047944 0.026249,0.1189468 0.053283,0.1587381 0.00988,0.014531 0.083606,0.075974 0.078209,0.097277 -0.00119,0.0047 -0.044072,0.027255 -0.044366,0.027486 -0.024502,0.019208 -0.036188,0.036099 -0.053591,0.063878 -0.07042,0.1124177 -0.066047,0.2849427 -0.017752,0.4021634 0.049829,0.1209629 0.2508578,0.3661441 0.3978274,0.275094 0.00368,-0.00227 -0.010007,0.00258 -0.011101,0.00689 -0.00414,0.016333 1.15e-4,0.034385 0.00605,0.049945 0.011705,0.030713 0.024739,0.0614 0.043063,0.08837 0.037092,0.054599 0.1096595,0.116507 0.1702489,0.1399657 0.1048304,0.040595 0.2250656,0.059724 0.3366291,0.036888 0.041386,-0.00847 0.085257,-0.014468 0.1215773,-0.03697 0.017531,-0.01086 0.02055,-0.052886 0.040193,-0.047909 0.00653,0.00165 0.0016,0.013996 0.00418,0.020424 0.00808,0.020303 0.016941,0.041623 0.032406,0.056625 0.021406,0.02076 0.08036,0.049411 0.1073085,0.056239 0.1343918,0.034056 0.325578,-1.859e-4 0.4415039,-0.081771 0.022544,-0.015865 0.043523,-0.037786 0.053589,-0.063879 0.00276,-0.00712 -0.00785,-0.071839 8.715e-4,-0.077238 0.00692,-0.00428 0.026181,0.024983 0.030534,0.027101 0.015264,0.00741 0.049119,0.00995 0.063815,0.00647 C 3.5433258,8.1907275 3.6347192,8.089705 3.6827552,7.995516 3.7629105,7.838347 3.6733302,7.7102505 3.6634918,7.5549247 3.6629569,7.5467682 3.7638133,7.4806759 3.7859385,7.4407169 3.8503202,7.3244517 3.8627995,7.1850078 3.836532,7.0565599 3.8256137,7.0031635 3.7968458,6.9164476 3.7725928,6.8660741 3.7505762,6.8203432 3.6364253,6.6341015 3.6369265,6.5896358 c 3.041e-4,-0.027555 0.050114,-0.049252 0.064683,-0.070752 0.053976,-0.079638 0.070419,-0.188712 0.071471,-0.2820447 0.0019,-0.1683404 -0.027428,-0.3261125 -0.093734,-0.4788264 -0.018277,-0.042099 -0.039796,-0.082665 -0.062503,-0.1223461 -0.0098,-0.017125 -0.034025,-0.037503 -0.041192,-0.05885 -0.00171,-0.00509 0.052153,-0.020974 0.068858,-0.050328 0.019315,-0.033924 0.036467,-0.096126 0.043374,-0.134245 C 3.734631,5.1343157 3.6998351,4.9930743 3.5737085,4.7726837 3.533464,4.7023618 3.484157,4.648621 3.4302551,4.6007785 c -9.97e-5,-8.85e-5 0.014821,-0.017122 0.015708,-0.025066 0.00578,-0.051832 0.00607,-0.037796 -0.00792,-0.079465 -0.04072,-0.1212984 -0.1075026,-0.230574 -0.2327586,-0.262314 -0.00885,-0.00224 -0.035066,-0.014126 -0.043933,-0.011133 -0.024867,0.00841 -0.048688,0.019934 -0.073032,0.029907 z"
       id="path26" />
  </g>
</svg>
